<svg width="42" height="42" fill="none" xmlns="http://www.w3.org/2000/svg"><path d="M30.819 0H11.2C4.05 0 0 4.05 0 11.2v19.6C0 37.95 4.05 42 11.2 42h19.619C37.968 42 42 37.95 42 30.8V11.2C42 4.05 37.968 0 30.819 0z" fill="#BA400F"/><path d="M11.274 15.475c-.952 0-1.736.784-1.736 1.755v14.429a1.745 1.745 0 003.49 0v-14.43c0-.97-.783-1.754-1.754-1.754zm9.8-6.888c-.952 0-1.736.784-1.736 1.755v21.317a1.745 1.745 0 003.491 0V10.342c0-.971-.784-1.755-1.755-1.755zm9.67 14.503c-.97 0-1.755.785-1.755 1.756v6.813a1.745 1.745 0 003.49 0v-6.813c0-.971-.783-1.755-1.735-1.755z" fill="#0FA5BA"/></svg>