<svg width="34" height="40" fill="none" xmlns="http://www.w3.org/2000/svg"><path d="M25.462 13.428c4.715 0 8.538 3.738 8.538 8.349v9.874C34 36.26 30.177 40 25.462 40H8.538C3.823 40 0 36.262 0 31.65v-9.873c0-4.61 3.823-8.35 8.538-8.35h16.924zm-8.472 9.34c-.976 0-1.768.776-1.768 1.73v4.412c0 .974.792 1.749 1.768 1.749.996 0 1.788-.775 1.788-1.749v-4.412c0-.954-.792-1.73-1.788-1.73z" fill="#BA400F"/><path d="M28.046 10.792v2.941a8.308 8.308 0 00-2.236-.298h-1.32v-2.643c0-4.035-3.354-7.314-7.48-7.314-4.125 0-7.478 3.26-7.499 7.274v2.683h-1.3c-.793 0-1.545.1-2.256.318v-2.961C5.975 4.83 10.914 0 16.97 0c6.137 0 11.076 4.83 11.076 10.792z" fill="#0FA5BA"/></svg>