<svg width="38" height="45" fill="none" xmlns="http://www.w3.org/2000/svg"><path d="M19.193 44.706c-.276 0-.553-.064-.803-.193l-8.05-4.167c-2.284-1.183-4.07-2.512-5.466-4.06C1.821 32.904.122 28.559.094 24.053L0 9.219C-.01 7.507 1.094 5.97 2.746 5.392L17.526.239a4.208 4.208 0 012.75-.016l14.836 4.978c1.661.555 2.784 2.08 2.793 3.79L38 23.835c.029 4.5-1.612 8.861-4.618 12.283-1.38 1.57-3.15 2.917-5.412 4.123l-7.978 4.261a1.708 1.708 0 01-.799.204z" fill="#BA400F"/><path d="M17.478 27.541a1.707 1.707 0 01-1.197-.473l-4.285-4.121a1.614 1.614 0 01-.013-2.324 1.72 1.72 0 012.387-.015l3.083 2.963 7.528-7.421a1.72 1.72 0 012.387-.016c.664.64.67 1.682.016 2.324l-8.716 8.594a1.7 1.7 0 01-1.19.49z" fill="#0FA5BA"/></svg>