<svg width="1128" height="3" fill="none" xmlns="http://www.w3.org/2000/svg"><path d="M1 1H.5v1H1V1zm0 1h5.094V1H1v1zm15.281 0H26.47V1H16.28v1zm20.375 0h10.188V1H36.656v1zm20.375 0H67.22V1H57.03v1zm20.375 0h10.188V1H77.406v1zm20.375 0h10.188V1H97.781v1zm20.375 0h10.188V1h-10.188v1zm20.375 0h10.188V1h-10.188v1zm20.375 0h10.188V1h-10.188v1zm20.375 0h10.188V1h-10.188v1zm20.375 0h10.188V1h-10.188v1zm20.375 0h10.188V1h-10.188v1zm20.375 0h10.188V1h-10.188v1zm20.375 0h10.188V1h-10.188v1zm20.375 0h10.188V1h-10.188v1zm20.375 0h10.188V1h-10.188v1zm20.375 0H327V1h-5.094v1zM1 .5H0v2h1v-2zm0 2h5.094v-2H1v2zm15.281 0H26.47v-2H16.28v2zm20.375 0h10.188v-2H36.656v2zm20.375 0H67.22v-2H57.03v2zm20.375 0h10.188v-2H77.406v2zm20.375 0h10.188v-2H97.781v2zm20.375 0h10.188v-2h-10.188v2zm20.375 0h10.188v-2h-10.188v2zm20.375 0h10.188v-2h-10.188v2zm20.375 0h10.188v-2h-10.188v2zm20.375 0h10.188v-2h-10.188v2zm20.375 0h10.188v-2h-10.188v2zm20.375 0h10.188v-2h-10.188v2zm20.375 0h10.188v-2h-10.188v2zm20.375 0h10.188v-2h-10.188v2zm20.375 0h10.188v-2h-10.188v2zm20.375 0H327v-2h-5.094v2zM396 1h-.5v1h.5V1zm0 1h5.094V1H396v1zm15.281 0h10.188V1h-10.188v1zm20.375 0h10.188V1h-10.188v1zm20.375 0h10.188V1h-10.188v1zm20.375 0h10.188V1h-10.188v1zm20.375 0h10.188V1h-10.188v1zm20.375 0h10.188V1h-10.188v1zm20.375 0h10.188V1h-10.188v1zm20.375 0h10.188V1h-10.188v1zm20.375 0h10.188V1h-10.188v1zm20.375 0h10.188V1h-10.188v1zm20.375 0h10.188V1h-10.188v1zm20.375 0h10.188V1h-10.188v1zm20.375 0h10.188V1h-10.188v1zm20.375 0h10.188V1h-10.188v1zm20.375 0h10.188V1h-10.188v1zm20.375 0H722V1h-5.094v1zM396 .5h-1v2h1v-2zm0 2h5.094v-2H396v2zm15.281 0h10.188v-2h-10.188v2zm20.375 0h10.188v-2h-10.188v2zm20.375 0h10.188v-2h-10.188v2zm20.375 0h10.188v-2h-10.188v2zm20.375 0h10.188v-2h-10.188v2zm20.375 0h10.188v-2h-10.188v2zm20.375 0h10.188v-2h-10.188v2zm20.375 0h10.188v-2h-10.188v2zm20.375 0h10.188v-2h-10.188v2zm20.375 0h10.188v-2h-10.188v2zm20.375 0h10.188v-2h-10.188v2zm20.375 0h10.188v-2h-10.188v2zm20.375 0h10.188v-2h-10.188v2zm20.375 0h10.188v-2h-10.188v2zm20.375 0h10.188v-2h-10.188v2zm20.375 0H722v-2h-5.094v2zM791 .5h-.5v1h.5v-1zm0 1h4.956v-1H791v1zm14.868 0h9.911v-1h-9.911v1zm19.823 0h9.912v-1h-9.912v1zm19.824 0h9.911v-1h-9.911v1zm19.823 0h9.912v-1h-9.912v1zm19.824 0h9.912v-1h-9.912v1zm19.823 0h9.912v-1h-9.912v1zm19.824 0h9.912v-1h-9.912v1zm19.823 0h9.912v-1h-9.912v1zm19.824 0h9.912v-1h-9.912v1zm19.823 0h9.912v-1h-9.912v1zm19.821 0h9.91v-1h-9.91v1zm19.83 0h9.91v-1h-9.91v1zm19.82 0h9.91v-1h-9.91v1zm19.82 0h9.92v-1h-9.92v1zm19.83 0h9.91v-1h-9.91v1zm19.82 0h9.91v-1h-9.91v1zm19.82 0h4.96v-1h-4.96v1zM791 0h-1v2h1V0zm0 2h4.956V0H791v2zm14.868 0h9.911V0h-9.911v2zm19.823 0h9.912V0h-9.912v2zm19.824 0h9.911V0h-9.911v2zm19.823 0h9.912V0h-9.912v2zm19.824 0h9.912V0h-9.912v2zm19.823 0h9.912V0h-9.912v2zm19.824 0h9.912V0h-9.912v2zm19.823 0h9.912V0h-9.912v2zm19.824 0h9.912V0h-9.912v2zm19.823 0h9.912V0h-9.912v2zm19.821 0h9.91V0h-9.91v2zm19.83 0h9.91V0h-9.91v2zm19.82 0h9.91V0h-9.91v2zm19.82 0h9.92V0h-9.92v2zm19.83 0h9.91V0h-9.91v2zm19.82 0h9.91V0h-9.91v2zm19.82 0h4.96V0h-4.96v2z" fill="#0FA5BA"/></svg>