<svg width="42" height="42" viewBox="0 0 42 42" fill="none" xmlns="http://www.w3.org/2000/svg">
<path d="M30.8187 0H11.2C4.05067 0 0 4.05067 0 11.2V30.8C0 37.9493 4.05067 42 11.2 42H30.8187C37.968 42 42 37.9493 42 30.8V11.2C42 4.05067 37.968 0 30.8187 0Z" fill="#BA400F"/>
<path d="M11.274 15.4749C10.322 15.4749 9.53796 16.2589 9.53796 17.2296V31.6589C9.53796 32.6109 10.322 33.3949 11.274 33.3949C12.2446 33.3949 13.0286 32.6109 13.0286 31.6589V17.2296C13.0286 16.2589 12.2446 15.4749 11.274 15.4749Z" fill="#0FA5BA"/>
<path d="M21.0744 8.58688C20.1224 8.58688 19.3384 9.37088 19.3384 10.3416V31.6589C19.3384 32.6109 20.1224 33.3949 21.0744 33.3949C22.045 33.3949 22.829 32.6109 22.829 31.6589V10.3416C22.829 9.37088 22.045 8.58688 21.0744 8.58688Z" fill="#0FA5BA"/>
<path d="M30.7438 23.0909C29.7731 23.0909 28.9891 23.8748 28.9891 24.8455V31.6589C28.9891 32.6109 29.7731 33.3949 30.7251 33.3949C31.6958 33.3949 32.4798 32.6109 32.4798 31.6589V24.8455C32.4798 23.8748 31.6958 23.0909 30.7438 23.0909Z" fill="#0FA5BA"/>
</svg>
