<svg width="1128" height="3" viewBox="0 0 1128 3" fill="none" xmlns="http://www.w3.org/2000/svg">
<path d="M1 1L0.5 1L0.5 2L1 2L1 1ZM1 2L6.09375 2L6.09375 1L1 1L1 2ZM16.2812 2L26.4687 2L26.4688 1L16.2813 1L16.2812 2ZM36.6562 2L46.8437 2L46.8438 1L36.6563 1L36.6562 2ZM57.0312 2L67.2187 2.00001L67.2188 1.00001L57.0313 1L57.0312 2ZM77.4062 2.00001L87.5937 2.00001L87.5938 1.00001L77.4063 1.00001L77.4062 2.00001ZM97.7812 2.00001L107.969 2.00001L107.969 1.00001L97.7813 1.00001L97.7812 2.00001ZM118.156 2.00001L128.344 2.00001L128.344 1.00001L118.156 1.00001L118.156 2.00001ZM138.531 2.00001L148.719 2.00001L148.719 1.00001L138.531 1.00001L138.531 2.00001ZM158.906 2.00001L169.094 2.00001L169.094 1.00001L158.906 1.00001L158.906 2.00001ZM179.281 2.00002L189.469 2.00002L189.469 1.00002L179.281 1.00002L179.281 2.00002ZM199.656 2.00002L209.844 2.00002L209.844 1.00002L199.656 1.00002L199.656 2.00002ZM220.031 2.00002L230.219 2.00002L230.219 1.00002L220.031 1.00002L220.031 2.00002ZM240.406 2.00002L250.594 2.00002L250.594 1.00002L240.406 1.00002L240.406 2.00002ZM260.781 2.00002L270.969 2.00002L270.969 1.00002L260.781 1.00002L260.781 2.00002ZM281.156 2.00002L291.344 2.00003L291.344 1.00003L281.156 1.00002L281.156 2.00002ZM301.531 2.00003L311.719 2.00003L311.719 1.00003L301.531 1.00003L301.531 2.00003ZM321.906 2.00003L327 2.00003L327 1.00003L321.906 1.00003L321.906 2.00003ZM1 0.5L8.74228e-08 0.5L-8.74228e-08 2.5L1 2.5L1 0.5ZM1 2.5L6.09375 2.5L6.09375 0.5L1 0.5L1 2.5ZM16.2812 2.5L26.4687 2.5L26.4688 0.500002L16.2813 0.500001L16.2812 2.5ZM36.6562 2.5L46.8437 2.5L46.8438 0.500004L36.6563 0.500003L36.6562 2.5ZM57.0312 2.5L67.2187 2.50001L67.2188 0.500006L57.0313 0.500005L57.0312 2.5ZM77.4062 2.50001L87.5937 2.50001L87.5938 0.500008L77.4063 0.500007L77.4062 2.50001ZM97.7812 2.50001L107.969 2.50001L107.969 0.500009L97.7813 0.500008L97.7812 2.50001ZM118.156 2.50001L128.344 2.50001L128.344 0.500011L118.156 0.50001L118.156 2.50001ZM138.531 2.50001L148.719 2.50001L148.719 0.500013L138.531 0.500012L138.531 2.50001ZM158.906 2.50001L169.094 2.50001L169.094 0.500015L158.906 0.500014L158.906 2.50001ZM179.281 2.50002L189.469 2.50002L189.469 0.500016L179.281 0.500016L179.281 2.50002ZM199.656 2.50002L209.844 2.50002L209.844 0.500018L199.656 0.500017L199.656 2.50002ZM220.031 2.50002L230.219 2.50002L230.219 0.50002L220.031 0.500019L220.031 2.50002ZM240.406 2.50002L250.594 2.50002L250.594 0.500022L240.406 0.500021L240.406 2.50002ZM260.781 2.50002L270.969 2.50002L270.969 0.500024L260.781 0.500023L260.781 2.50002ZM281.156 2.50002L291.344 2.50003L291.344 0.500025L281.156 0.500024L281.156 2.50002ZM301.531 2.50003L311.719 2.50003L311.719 0.500027L301.531 0.500026L301.531 2.50003ZM321.906 2.50003L327 2.50003L327 0.500028L321.906 0.500028L321.906 2.50003Z" fill="#0FA5BA"/>
<path d="M396 1L395.5 1L395.5 2L396 2L396 1ZM396 2L401.094 2L401.094 1L396 1L396 2ZM411.281 2L421.469 2L421.469 1L411.281 1L411.281 2ZM431.656 2L441.844 2L441.844 1L431.656 1L431.656 2ZM452.031 2L462.219 2.00001L462.219 1.00001L452.031 1L452.031 2ZM472.406 2.00001L482.594 2.00001L482.594 1.00001L472.406 1.00001L472.406 2.00001ZM492.781 2.00001L502.969 2.00001L502.969 1.00001L492.781 1.00001L492.781 2.00001ZM513.156 2.00001L523.344 2.00001L523.344 1.00001L513.156 1.00001L513.156 2.00001ZM533.531 2.00001L543.719 2.00001L543.719 1.00001L533.531 1.00001L533.531 2.00001ZM553.906 2.00001L564.094 2.00001L564.094 1.00001L553.906 1.00001L553.906 2.00001ZM574.281 2.00002L584.469 2.00002L584.469 1.00002L574.281 1.00002L574.281 2.00002ZM594.656 2.00002L604.844 2.00002L604.844 1.00002L594.656 1.00002L594.656 2.00002ZM615.031 2.00002L625.219 2.00002L625.219 1.00002L615.031 1.00002L615.031 2.00002ZM635.406 2.00002L645.594 2.00002L645.594 1.00002L635.406 1.00002L635.406 2.00002ZM655.781 2.00002L665.969 2.00002L665.969 1.00002L655.781 1.00002L655.781 2.00002ZM676.156 2.00002L686.344 2.00003L686.344 1.00003L676.156 1.00002L676.156 2.00002ZM696.531 2.00003L706.719 2.00003L706.719 1.00003L696.531 1.00003L696.531 2.00003ZM716.906 2.00003L722 2.00003L722 1.00003L716.906 1.00003L716.906 2.00003ZM396 0.5L395 0.5L395 2.5L396 2.5L396 0.5ZM396 2.5L401.094 2.5L401.094 0.5L396 0.5L396 2.5ZM411.281 2.5L421.469 2.5L421.469 0.500002L411.281 0.500001L411.281 2.5ZM431.656 2.5L441.844 2.5L441.844 0.500004L431.656 0.500003L431.656 2.5ZM452.031 2.5L462.219 2.50001L462.219 0.500006L452.031 0.500005L452.031 2.5ZM472.406 2.50001L482.594 2.50001L482.594 0.500008L472.406 0.500007L472.406 2.50001ZM492.781 2.50001L502.969 2.50001L502.969 0.500009L492.781 0.500008L492.781 2.50001ZM513.156 2.50001L523.344 2.50001L523.344 0.500011L513.156 0.50001L513.156 2.50001ZM533.531 2.50001L543.719 2.50001L543.719 0.500013L533.531 0.500012L533.531 2.50001ZM553.906 2.50001L564.094 2.50001L564.094 0.500015L553.906 0.500014L553.906 2.50001ZM574.281 2.50002L584.469 2.50002L584.469 0.500016L574.281 0.500016L574.281 2.50002ZM594.656 2.50002L604.844 2.50002L604.844 0.500018L594.656 0.500017L594.656 2.50002ZM615.031 2.50002L625.219 2.50002L625.219 0.50002L615.031 0.500019L615.031 2.50002ZM635.406 2.50002L645.594 2.50002L645.594 0.500022L635.406 0.500021L635.406 2.50002ZM655.781 2.50002L665.969 2.50002L665.969 0.500024L655.781 0.500023L655.781 2.50002ZM676.156 2.50002L686.344 2.50003L686.344 0.500025L676.156 0.500024L676.156 2.50002ZM696.531 2.50003L706.719 2.50003L706.719 0.500027L696.531 0.500026L696.531 2.50003ZM716.906 2.50003L722 2.50003L722 0.500028L716.906 0.500028L716.906 2.50003Z" fill="#0FA5BA"/>
<path d="M791 0.5H790.5V1.5H791V0.5ZM791 1.5H795.956V0.5H791V1.5ZM805.868 1.5H815.779V0.5H805.868V1.5ZM825.691 1.5H835.603V0.5H825.691V1.5ZM845.515 1.5H855.426V0.5H845.515V1.5ZM865.338 1.5H875.25V0.5H865.338V1.5ZM885.162 1.5H895.074V0.5H885.162V1.5ZM904.985 1.5H914.897V0.5H904.985V1.5ZM924.809 1.5H934.721V0.5H924.809V1.5ZM944.632 1.5H954.544V0.5H944.632V1.5ZM964.456 1.5H974.368V0.5H964.456V1.5ZM984.279 1.5H994.191V0.5H984.279V1.5ZM1004.1 1.5H1014.01V0.5H1004.1V1.5ZM1023.93 1.5H1033.84V0.5H1023.93V1.5ZM1043.75 1.5H1053.66V0.5H1043.75V1.5ZM1063.57 1.5H1073.49V0.5H1063.57V1.5ZM1083.4 1.5H1093.31V0.5H1083.4V1.5ZM1103.22 1.5H1113.13V0.5H1103.22V1.5ZM1123.04 1.5H1128V0.5H1123.04V1.5ZM791 0H790V2H791V0ZM791 2H795.956V0H791V2ZM805.868 2H815.779V0H805.868V2ZM825.691 2H835.603V0H825.691V2ZM845.515 2H855.426V0H845.515V2ZM865.338 2H875.25V0H865.338V2ZM885.162 2H895.074V0H885.162V2ZM904.985 2H914.897V0H904.985V2ZM924.809 2H934.721V0H924.809V2ZM944.632 2H954.544V0H944.632V2ZM964.456 2H974.368V0H964.456V2ZM984.279 2H994.191V0H984.279V2ZM1004.1 2H1014.01V0H1004.1V2ZM1023.93 2H1033.84V0H1023.93V2ZM1043.75 2H1053.66V0H1043.75V2ZM1063.57 2H1073.49V0H1063.57V2ZM1083.4 2H1093.31V0H1083.4V2ZM1103.22 2H1113.13V0H1103.22V2ZM1123.04 2H1128V0H1123.04V2Z" fill="#0FA5BA"/>
</svg>
