<svg width="34" height="40" viewBox="0 0 34 40" fill="none" xmlns="http://www.w3.org/2000/svg">
<path d="M25.4624 13.4277C30.1773 13.4277 34 17.1661 34 21.777V31.6507C34 36.2616 30.1773 40 25.4624 40H8.5376C3.82271 40 0 36.2616 0 31.6507V21.777C0 17.1661 3.82271 13.4277 8.5376 13.4277H25.4624ZM16.9898 22.7687C16.0143 22.7687 15.2218 23.5438 15.2218 24.4978V28.91C15.2218 29.8838 16.0143 30.6589 16.9898 30.6589C17.9857 30.6589 18.7782 29.8838 18.7782 28.91V24.4978C18.7782 23.5438 17.9857 22.7687 16.9898 22.7687Z" fill="#BA400F"/>
<path d="M28.0457 10.7919V13.7333C27.3344 13.5346 26.5824 13.4352 25.8102 13.4352H24.4892V10.7919C24.4892 6.75736 21.1359 3.47805 17.0104 3.47805C12.8849 3.47805 9.53164 6.73749 9.51132 10.7522V13.4352H8.21066C7.41807 13.4352 6.66613 13.5346 5.95483 13.7532V10.7919C5.97516 4.82953 10.9136 0 16.9698 0C23.1073 0 28.0457 4.82953 28.0457 10.7919Z" fill="#0FA5BA"/>
</svg>
