<svg width="1320" height="310" viewBox="0 0 1320 310" fill="none" xmlns="http://www.w3.org/2000/svg">
<g opacity="0.12">
<path d="M1347.1 243.225C1297.73 243.225 1257.71 203.498 1257.71 154.5C1257.71 105.502 1297.73 65.7744 1347.1 65.7744C1396.48 65.7744 1436.5 105.502 1436.5 154.5C1436.5 203.498 1396.48 243.225 1347.1 243.225Z" fill="url(#paint0_linear_30_1839)" fill-opacity="0.4" stroke="white"/>
<path d="M1257.21 333.122C1158.18 333.122 1077.91 253.149 1077.91 154.5C1077.91 55.8519 1158.18 -24.1216 1257.21 -24.1216C1356.23 -24.1216 1436.5 55.8519 1436.5 154.5C1436.5 253.149 1356.23 333.122 1257.21 333.122Z" fill="url(#paint1_linear_30_1839)" fill-opacity="0.35" stroke="white"/>
<path d="M1167.31 423.018C1018.64 423.018 898.122 302.797 898.122 154.5C898.122 6.20278 1018.64 -114.018 1167.31 -114.018C1315.98 -114.018 1436.5 6.2028 1436.5 154.5C1436.5 302.797 1315.98 423.018 1167.31 423.018Z" fill="url(#paint2_linear_30_1839)" fill-opacity="0.35" stroke="white"/>
<circle cx="1078.09" cy="154.5" r="358.415" transform="rotate(90 1078.09 154.5)" fill="url(#paint3_linear_30_1839)" fill-opacity="0.35" stroke="white"/>
<circle cx="988.189" cy="154.5" r="448.311" transform="rotate(90 988.189 154.5)" fill="url(#paint4_linear_30_1839)" fill-opacity="0.35" stroke="white"/>
<path d="M898.293 692.707C601.049 692.707 360.085 451.743 360.085 154.5C360.085 -142.744 601.049 -383.708 898.293 -383.708C1195.54 -383.708 1436.5 -142.744 1436.5 154.5C1436.5 451.744 1195.54 692.707 898.293 692.707Z" fill="url(#paint5_linear_30_1839)" fill-opacity="0.35" stroke="white"/>
<path d="M808.396 782.604C461.504 782.604 180.293 501.392 180.293 154.5C180.293 -192.392 461.504 -473.604 808.396 -473.604C1155.29 -473.604 1436.5 -192.392 1436.5 154.5C1436.5 501.392 1155.29 782.604 808.396 782.604Z" fill="url(#paint6_linear_30_1839)" fill-opacity="0.35" stroke="white"/>
<circle cx="718.5" cy="154.5" r="718" transform="rotate(90 718.5 154.5)" fill="url(#paint7_linear_30_1839)" fill-opacity="0.35" stroke="white"/>
</g>
<defs>
<linearGradient id="paint0_linear_30_1839" x1="1437" y1="154.5" x2="1257.21" y2="154.5" gradientUnits="userSpaceOnUse">
<stop stop-color="white" stop-opacity="0"/>
<stop offset="1" stop-color="white"/>
</linearGradient>
<linearGradient id="paint1_linear_30_1839" x1="1437" y1="154.5" x2="1077.41" y2="154.5" gradientUnits="userSpaceOnUse">
<stop offset="0.544792" stop-color="white" stop-opacity="0"/>
<stop offset="1" stop-color="white"/>
</linearGradient>
<linearGradient id="paint2_linear_30_1839" x1="1437" y1="154.5" x2="897.622" y2="154.5" gradientUnits="userSpaceOnUse">
<stop offset="0.544792" stop-color="white" stop-opacity="0"/>
<stop offset="1" stop-color="white"/>
</linearGradient>
<linearGradient id="paint3_linear_30_1839" x1="1078.09" y1="-204.415" x2="1078.09" y2="513.414" gradientUnits="userSpaceOnUse">
<stop offset="0.544792" stop-color="white" stop-opacity="0"/>
<stop offset="1" stop-color="white"/>
</linearGradient>
<linearGradient id="paint4_linear_30_1839" x1="988.189" y1="-294.311" x2="988.189" y2="603.311" gradientUnits="userSpaceOnUse">
<stop offset="0.544792" stop-color="white" stop-opacity="0"/>
<stop offset="1" stop-color="white"/>
</linearGradient>
<linearGradient id="paint5_linear_30_1839" x1="1437" y1="154.5" x2="359.585" y2="154.5" gradientUnits="userSpaceOnUse">
<stop offset="0.544792" stop-color="white" stop-opacity="0"/>
<stop offset="1" stop-color="white"/>
</linearGradient>
<linearGradient id="paint6_linear_30_1839" x1="1437" y1="154.5" x2="179.793" y2="154.5" gradientUnits="userSpaceOnUse">
<stop offset="0.544792" stop-color="white" stop-opacity="0"/>
<stop offset="1" stop-color="white"/>
</linearGradient>
<linearGradient id="paint7_linear_30_1839" x1="718.5" y1="-564" x2="718.5" y2="873" gradientUnits="userSpaceOnUse">
<stop offset="0.544792" stop-color="white" stop-opacity="0"/>
<stop offset="1" stop-color="white"/>
</linearGradient>
</defs>
</svg>
