<svg width="38" height="45" viewBox="0 0 38 45" fill="none" xmlns="http://www.w3.org/2000/svg">
<path d="M19.1934 44.7059C18.9166 44.7059 18.6398 44.6423 18.39 44.513L10.3405 40.3462C8.05643 39.1626 6.26965 37.8343 4.87443 36.2868C1.8207 32.9025 0.121688 28.5581 0.0946838 24.0516L8.3864e-05 9.21894C-0.0110828 7.50706 1.09384 5.97053 2.7456 5.39187L17.5259 0.238703C18.4035 -0.0747395 19.3825 -0.0791233 20.2758 0.22336L35.1124 5.20118C36.7732 5.75573 37.8961 7.28129 37.9051 8.99098L37.9996 23.8346C38.0289 28.3345 36.3884 32.6964 33.3819 36.118C32.0024 37.6874 30.2314 39.0354 27.9698 40.241L19.9923 44.502C19.7448 44.6357 19.4702 44.7037 19.1934 44.7059Z" fill="#BA400F"/>
<path d="M17.4779 27.5411C17.0458 27.5432 16.6138 27.3876 16.2807 27.0676L11.9961 22.9468C11.3345 22.3068 11.3277 21.2678 11.9826 20.6234C12.6374 19.9768 13.7063 19.9702 14.3702 20.6081L17.4532 23.5715L24.9806 16.1497C25.6377 15.5031 26.7066 15.4965 27.3682 16.1344C28.0321 16.7744 28.0388 17.8156 27.384 18.4578L18.6684 27.0523C18.3398 27.3767 17.91 27.5389 17.4779 27.5411Z" fill="#0FA5BA"/>
</svg>
